<svg width="60" height="61" viewBox="0 0 60 61" fill="none" xmlns="http://www.w3.org/2000/svg">
<g clip-path="url(#clip0_55_843)">
<path d="M12.8569 30.3213V19.0498C12.8903 16.8343 13.3607 14.6471 14.2409 12.6136C15.1211 10.5801 16.3939 8.74024 17.9864 7.19951C19.5789 5.65877 21.4598 4.4474 23.5212 3.63482C25.5827 2.82224 27.7842 2.42441 29.9997 2.46413C32.2152 2.42441 34.4167 2.82224 36.4782 3.63482C38.5397 4.4474 40.4205 5.65877 42.013 7.19951C43.6055 8.74024 44.8783 10.5801 45.7586 12.6136C46.6388 14.6471 47.1091 16.8343 47.1426 19.0498V30.3213M38.5711 52.8213C40.8444 52.8213 43.0246 51.9182 44.6321 50.3108C46.2395 48.7033 47.1426 46.5231 47.1426 44.2498V34.607M38.5711 52.8213C38.5711 54.2421 38.0067 55.6047 37.0021 56.6093C35.9974 57.614 34.6348 58.1784 33.214 58.1784H26.7854C25.3646 58.1784 24.002 57.614 22.9974 56.6093C21.9927 55.6047 21.4283 54.2421 21.4283 52.8213C21.4283 51.4005 21.9927 50.0379 22.9974 49.0332C24.002 48.0285 25.3646 47.4641 26.7854 47.4641H33.214C34.6348 47.4641 35.9974 48.0285 37.0021 49.0332C38.0067 50.0379 38.5711 51.4005 38.5711 52.8213ZM6.42829 23.8927H10.714C11.2823 23.8927 11.8274 24.1185 12.2292 24.5203C12.6311 24.9222 12.8569 25.4672 12.8569 26.0356V38.8927C12.8569 39.461 12.6311 40.0061 12.2292 40.4079C11.8274 40.8098 11.2823 41.0356 10.714 41.0356H6.42829C5.29165 41.0356 4.20156 40.584 3.39783 39.7803C2.59411 38.9766 2.14258 37.8865 2.14258 36.7498V28.1784C2.14258 27.0418 2.59411 25.9517 3.39783 25.148C4.20156 24.3442 5.29165 23.8927 6.42829 23.8927ZM53.5711 41.0356H49.2854C48.7171 41.0356 48.1721 40.8098 47.7702 40.4079C47.3683 40.0061 47.1426 39.461 47.1426 38.8927V26.0356C47.1426 25.4672 47.3683 24.9222 47.7702 24.5203C48.1721 24.1185 48.7171 23.8927 49.2854 23.8927H53.5711C54.7078 23.8927 55.7979 24.3442 56.6016 25.148C57.4053 25.9517 57.8569 27.0418 57.8569 28.1784V36.7498C57.8569 37.8865 57.4053 38.9766 56.6016 39.7803C55.7979 40.584 54.7078 41.0356 53.5711 41.0356Z" stroke="#0D1226" stroke-width="4.28571" stroke-linecap="round" stroke-linejoin="round"/>
</g>
<defs>
<clipPath id="clip0_55_843">
<rect width="60" height="60" fill="white" transform="translate(0 0.321289)"/>
</clipPath>
</defs>
</svg>
