<svg width="60" height="61" viewBox="0 0 60 61" fill="none" xmlns="http://www.w3.org/2000/svg">
<path d="M5 17.8213V37.8213C5 39.1474 5.52678 40.4191 6.46447 41.3568C7.40215 42.2945 8.67392 42.8213 10 42.8213H12.5M5 17.8213V12.8213C5 11.4952 5.52678 10.2234 6.46447 9.28575C7.40215 8.34807 8.67392 7.82129 10 7.82129H15M5 17.8213C7.65216 17.8213 10.1957 16.7677 12.0711 14.8924C13.9464 13.017 15 10.4735 15 7.82129M15 7.82129H47.5M24.41 30.3213C23.1327 28.8924 22.4509 27.0288 22.5045 25.1131C22.5582 23.1973 23.3431 21.3748 24.6983 20.0196C26.0535 18.6644 27.876 17.8794 29.7918 17.8258C31.7076 17.7722 33.5712 18.454 35 19.7313M5 50.3213L50 5.32129M53.05 45.4388L54.4225 29.7863C54.61 27.6238 52.9275 25.7113 50.6625 25.5113L48.6125 25.3338M44.165 52.5488L48.265 52.9088C50.53 53.1063 52.52 51.5138 52.71 49.3538L53.0525 45.4388C48.52 45.0438 44.5425 48.2263 44.165 52.5488ZM44.165 52.5488L17.5 50.2163M28.3675 41.5238C29.39 42.8238 30.7175 43.4863 32.5425 43.6463C35.94 43.9438 38.925 41.5563 39.2075 38.3138C39.36 36.5738 38.995 35.1413 37.83 33.9563" stroke="#0D1226" stroke-width="3" stroke-linecap="round" stroke-linejoin="round"/>
</svg>
