<svg viewBox="0 0 16 15" fill="none" xmlns="http://www.w3.org/2000/svg">
<path d="M13.375 4.11255C14.7812 4.11255 16 5.30005 16 6.7063C16 8.1438 14.8125 9.30005 13.375 9.30005H12.2812C12.2188 9.55005 12.125 9.80005 12.0312 10.0188C12.0938 10.7063 11.9062 11.425 11.5312 11.9563C11.5 13.6125 10.3438 14.8 8.40625 14.8H7.71875C5.84375 14.8 4.65625 13.55 3.75 13.55H3.6875C3.5 13.7063 3.25 13.8 3 13.8H1C0.4375 13.8 0 13.425 0 12.925V5.7063C0 5.2063 0.4375 4.80005 1 4.80005H3C3.25 4.80005 3.5 4.92505 3.6875 5.05005H3.75C3.96875 5.05005 4.21875 4.86255 4.6875 4.3313H4.71875C5 4.0188 5.28125 3.67505 5.53125 3.2688C6.09375 2.3313 6.46875 0.800049 7.875 0.800049C9.65625 0.800049 10.75 1.92505 10.75 3.42505C10.75 3.6438 10.75 3.8938 10.6875 4.11255H13.375ZM13.375 7.80005C13.9688 7.80005 14.5 7.30005 14.5 6.7063C14.5 6.1438 13.9688 5.61255 13.375 5.61255H8.4375C8.4375 5.0813 9.25 4.5188 9.25 3.42505C9.25 2.5813 8.625 2.30005 7.875 2.30005C7.625 2.30005 7.25 3.3313 6.78125 4.0813C6.5 4.5188 6.1875 4.92505 5.84375 5.30005C5.3125 5.8938 4.78125 6.4563 4 6.55005V12.0813C5.3125 12.2063 6.3125 13.3 7.75 13.3H8.40625C9.65625 13.3 10.1875 12.6125 9.96875 11.3938C10.4375 11.1438 10.75 10.3313 10.375 9.73755C11 9.1438 10.9375 8.2688 10.5312 7.80005H13.375ZM2.75 11.8C2.75 11.3938 2.40625 11.05 2 11.05C1.5625 11.05 1.25 11.3938 1.25 11.8C1.25 12.2375 1.5625 12.55 2 12.55C2.40625 12.55 2.75 12.2375 2.75 11.8Z" fill="#0D1226"/>
</svg>
