<svg width="60" height="61" viewBox="0 0 60 61" fill="none" xmlns="http://www.w3.org/2000/svg">
<g clip-path="url(#clip0_55_838)">
<path d="M8.526 11.9163V34.2183C8.526 46.3593 18.141 56.1993 30 56.1993C41.859 56.1993 51.474 46.3593 51.474 34.2183V11.9283L29.871 4.65929L8.526 11.9163ZM29.865 0.321289L55.5 8.94329V34.2183C55.5 48.6333 44.082 60.3213 30 60.3213C15.918 60.3213 4.5 48.6333 4.5 34.2183V8.94329L29.865 0.321289ZM43.122 19.7763C42.9262 19.5964 42.6961 19.4578 42.4456 19.3688C42.195 19.2797 41.9291 19.2421 41.6637 19.258C41.3983 19.274 41.1388 19.3432 40.9007 19.4617C40.6626 19.5801 40.4509 19.7452 40.278 19.9473L27.33 34.8543L18.966 25.5993C18.7892 25.4012 18.5743 25.2407 18.3341 25.1273C18.094 25.0139 17.8335 24.95 17.5682 24.9394C17.3028 24.9288 17.0381 24.9716 16.7896 25.0654C16.5412 25.1592 16.3141 25.302 16.122 25.4853C15.7287 25.8613 15.4971 26.3756 15.4764 26.9193C15.4557 27.463 15.6474 27.9935 16.011 28.3983L25.881 39.3183C26.069 39.5296 26.3001 39.6982 26.5587 39.8128C26.8173 39.9273 27.0975 39.9851 27.3803 39.9822C27.6632 39.9794 27.9421 39.916 28.1984 39.7963C28.4546 39.6766 28.6823 39.5034 28.866 39.2883L43.287 22.6863C43.6429 22.2748 43.8247 21.741 43.7939 21.1979C43.7631 20.6547 43.5221 20.1449 43.122 19.7763Z" fill="#0D1226"/>
</g>
<defs>
<clipPath id="clip0_55_838">
<rect width="60" height="60" fill="white" transform="translate(0 0.321289)"/>
</clipPath>
</defs>
</svg>
