<svg width="60" height="61" viewBox="0 0 60 61" fill="none" xmlns="http://www.w3.org/2000/svg">
<path d="M36.9728 23.8929C38.2515 23.8929 39.4779 24.4008 40.3821 25.305C41.2863 26.2092 41.7942 27.4356 41.7942 28.7143V42.105C41.7942 45.2313 40.5523 48.2296 38.3416 50.4403C36.131 52.6509 33.1327 53.8929 30.0064 53.8929C26.88 53.8929 23.8817 52.6509 21.6711 50.4403C19.4604 48.2296 18.2185 45.2313 18.2185 42.105V28.7143C18.2185 27.4356 18.7265 26.2092 19.6307 25.305C20.5349 24.4008 21.7612 23.8929 23.0399 23.8929H36.9728ZM36.9728 27.1071H23.0399C22.6137 27.1071 22.2049 27.2765 21.9035 27.5779C21.6021 27.8793 21.4328 28.288 21.4328 28.7143V42.105C21.4328 44.3789 22.3361 46.5596 23.9439 48.1674C25.5518 49.7753 27.7325 50.6786 30.0064 50.6786C32.2802 50.6786 34.4609 49.7753 36.0688 48.1674C37.6767 46.5596 38.5799 44.3789 38.5799 42.105V28.7143C38.5799 28.288 38.4106 27.8793 38.1092 27.5779C37.8078 27.2765 37.399 27.1071 36.9728 27.1071ZM9.10708 23.8929H18.0128C17.1522 24.7884 16.5476 25.8984 16.2621 27.1071H9.10708C8.68084 27.1071 8.27205 27.2765 7.97065 27.5779C7.66926 27.8793 7.49993 28.288 7.49993 28.7143V39.9621C7.49909 41.0375 7.76804 42.096 8.28215 43.0405C8.79626 43.985 9.53911 44.7855 10.4427 45.3686C11.3462 45.9517 12.3817 46.2989 13.4541 46.3782C14.5266 46.4576 15.6018 46.2666 16.5814 45.8229C16.8664 46.8729 17.2756 47.8714 17.7899 48.8057C16.3218 49.4473 14.717 49.713 13.1205 49.5787C11.5239 49.4444 9.986 48.9145 8.64566 48.0368C7.30532 47.159 6.20481 45.9611 5.44358 44.5513C4.68235 43.1416 4.28438 41.5643 4.28565 39.9621V28.7143C4.28565 27.4356 4.79362 26.2092 5.69781 25.305C6.602 24.4008 7.82835 23.8929 9.10708 23.8929ZM50.8928 23.8929C52.1715 23.8929 53.3979 24.4008 54.3021 25.305C55.2063 26.2092 55.7142 27.4356 55.7142 28.7143V39.9643C55.7149 41.5653 55.3168 43.1414 54.5561 44.5501C53.7953 45.9589 52.6957 47.1561 51.3566 48.0336C50.0174 48.9111 48.4808 49.4414 46.8855 49.5766C45.2901 49.7118 43.6862 49.4476 42.2185 48.8079L42.3385 48.5893C42.7971 47.7193 43.1678 46.7957 43.4335 45.8271C44.4126 46.2677 45.4864 46.456 46.5569 46.3749C47.6274 46.2938 48.6606 45.9459 49.5622 45.3629C50.4637 44.7799 51.2049 43.9805 51.718 43.0374C52.2312 42.0944 52.5 41.0379 52.4999 39.9643V28.7143C52.4999 28.2884 52.3309 27.88 52.03 27.5786C51.729 27.2773 51.3208 27.1077 50.8949 27.1071H43.7528C43.4666 25.8982 42.8613 24.7882 41.9999 23.8929H50.8928ZM29.9999 6.75C30.9848 6.75 31.9601 6.94399 32.8701 7.3209C33.78 7.69781 34.6068 8.25026 35.3032 8.9467C35.9997 9.64314 36.5521 10.4699 36.929 11.3799C37.3059 12.2898 37.4999 13.2651 37.4999 14.25C37.4999 15.2349 37.3059 16.2102 36.929 17.1201C36.5521 18.0301 35.9997 18.8569 35.3032 19.5533C34.6068 20.2497 33.78 20.8022 32.8701 21.1791C31.9601 21.556 30.9848 21.75 29.9999 21.75C28.0108 21.75 26.1032 20.9598 24.6966 19.5533C23.2901 18.1468 22.4999 16.2391 22.4999 14.25C22.4999 12.2609 23.2901 10.3532 24.6966 8.9467C26.1032 7.54018 28.0108 6.75 29.9999 6.75ZM47.1492 8.89286C47.9934 8.89286 48.8294 9.05914 49.6093 9.3822C50.3893 9.70527 51.098 10.1788 51.6949 10.7757C52.2919 11.3727 52.7654 12.0814 53.0885 12.8613C53.4115 13.6413 53.5778 14.4772 53.5778 15.3214C53.5778 16.1656 53.4115 17.0016 53.0885 17.7815C52.7654 18.5615 52.2919 19.2702 51.6949 19.8671C51.098 20.4641 50.3893 20.9376 49.6093 21.2607C48.8294 21.5837 47.9934 21.75 47.1492 21.75C45.4443 21.75 43.8091 21.0727 42.6035 19.8671C41.3979 18.6615 40.7207 17.0264 40.7207 15.3214C40.7207 13.6165 41.3979 11.9813 42.6035 10.7757C43.8091 9.57015 45.4443 8.89286 47.1492 8.89286ZM12.8506 8.89286C13.6949 8.89286 14.5308 9.05914 15.3108 9.3822C16.0907 9.70527 16.7994 10.1788 17.3963 10.7757C17.9933 11.3727 18.4668 12.0814 18.7899 12.8613C19.1129 13.6413 19.2792 14.4772 19.2792 15.3214C19.2792 16.1656 19.1129 17.0016 18.7899 17.7815C18.4668 18.5615 17.9933 19.2702 17.3963 19.8671C16.7994 20.4641 16.0907 20.9376 15.3108 21.2607C14.5308 21.5837 13.6949 21.75 12.8506 21.75C11.1457 21.75 9.51055 21.0727 8.30496 19.8671C7.09937 18.6615 6.42208 17.0264 6.42208 15.3214C6.42208 13.6165 7.09937 11.9813 8.30496 10.7757C9.51055 9.57015 11.1457 8.89286 12.8506 8.89286ZM29.9999 9.96429C28.8633 9.96429 27.7732 10.4158 26.9695 11.2195C26.1658 12.0233 25.7142 13.1134 25.7142 14.25C25.7142 15.3866 26.1658 16.4767 26.9695 17.2805C27.7732 18.0842 28.8633 18.5357 29.9999 18.5357C31.1366 18.5357 32.2267 18.0842 33.0304 17.2805C33.8341 16.4767 34.2856 15.3866 34.2856 14.25C34.2856 13.1134 33.8341 12.0233 33.0304 11.2195C32.2267 10.4158 31.1366 9.96429 29.9999 9.96429ZM47.1492 12.1071C46.7271 12.1071 46.3091 12.1903 45.9192 12.3518C45.5292 12.5133 45.1749 12.7501 44.8764 13.0486C44.5779 13.3471 44.3411 13.7014 44.1796 14.0914C44.0181 14.4813 43.9349 14.8993 43.9349 15.3214C43.9349 15.7435 44.0181 16.1615 44.1796 16.5515C44.3411 16.9415 44.5779 17.2958 44.8764 17.5943C45.1749 17.8927 45.5292 18.1295 45.9192 18.291C46.3091 18.4526 46.7271 18.5357 47.1492 18.5357C48.0017 18.5357 48.8193 18.1971 49.4221 17.5943C50.0249 16.9915 50.3635 16.1739 50.3635 15.3214C50.3635 14.4689 50.0249 13.6514 49.4221 13.0486C48.8193 12.4458 48.0017 12.1071 47.1492 12.1071ZM12.8506 12.1071C12.4285 12.1071 12.0106 12.1903 11.6206 12.3518C11.2306 12.5133 10.8763 12.7501 10.5778 13.0486C10.2793 13.3471 10.0426 13.7014 9.88104 14.0914C9.7195 14.4813 9.63636 14.8993 9.63636 15.3214C9.63636 15.7435 9.7195 16.1615 9.88104 16.5515C10.0426 16.9415 10.2793 17.2958 10.5778 17.5943C10.8763 17.8927 11.2306 18.1295 11.6206 18.291C12.0106 18.4526 12.4285 18.5357 12.8506 18.5357C13.7031 18.5357 14.5207 18.1971 15.1235 17.5943C15.7263 16.9915 16.0649 16.1739 16.0649 15.3214C16.0649 14.4689 15.7263 13.6514 15.1235 13.0486C14.5207 12.4458 13.7031 12.1071 12.8506 12.1071Z" fill="#0D1226"/>
</svg>
